<svg id="icons" xmlns="http://www.w3.org/2000/svg" xmlns:xlink="http://www.w3.org/1999/xlink" viewBox="0 0 48 48"><defs><linearGradient id="linear-gradient" x1="24" y1="48" x2="24" gradientUnits="userSpaceOnUse"><stop offset="0" stop-color="#fd7d47"/><stop offset="1" stop-color="#ff5099"/></linearGradient></defs><title>people-members-team-speeching-talking-presentation</title><path id="people-members-team-speeching-talking-presentation" d="M32,14a7,7,0,1,0-7-7A7,7,0,0,0,32,14ZM32,4a3,3,0,1,1-3,3A3,3,0,0,1,32,4ZM25,24H21V22a6,6,0,0,1,6-6H37a6,6,0,0,1,6,6v2H39V22a2,2,0,0,0-2-2H27a2,2,0,0,0-2,2Zm-8,0H13V15.17l4.59-4.58,2.82,2.82L17,16.83Zm30,2v4H17v6H13V30H9V26ZM3,36a4,4,0,1,1,4,4A4,4,0,0,1,3,36ZM13,46v2H1V46a4,4,0,0,1,4-4H9A4,4,0,0,1,13,46Zm10-6a4,4,0,1,1,4-4A4,4,0,0,1,23,40Zm6,6v2H17V46a4,4,0,0,1,4-4h4A4,4,0,0,1,29,46Zm10-6a4,4,0,1,1,4-4A4,4,0,0,1,39,40Zm6,6v2H33V46a4,4,0,0,1,4-4h4A4,4,0,0,1,45,46Z" fill="url(#linear-gradient)"/></svg>