<?xml version="1.0" encoding="UTF-8"?>
<svg width="25px" height="21px" viewBox="0 0 25 21" version="1.1" xmlns="http://www.w3.org/2000/svg" xmlns:xlink="http://www.w3.org/1999/xlink">
    <!-- Generator: Sketch 42 (36781) - http://www.bohemiancoding.com/sketch -->
    <title>dashboard</title>
    <desc>Created with Sketch.</desc>
    <defs>
        <linearGradient x1="50%" y1="0%" x2="50%" y2="100%" id="linearGradient-1">
            <stop stop-color="#1AD6FD" offset="0%"></stop>
            <stop stop-color="#1D67F0" offset="100%"></stop>
        </linearGradient>
    </defs>
    <g id="Page-1" stroke="none" stroke-width="1" fill="none" fill-rule="evenodd">
        <g id="Filled" transform="translate(-500.000000, -352.000000)" fill="url(#linearGradient-1)">
            <g id="dashboard" transform="translate(500.000000, 352.000000)">
                <path d="M12.966,0.00885338658 C19.453,0.245853387 24.735,5.51285339 24.991,12.0008534 C25.105,14.9008534 24.243,17.6618534 22.497,19.9848534 C22.019,20.6218534 21.264,21.0008534 20.478,21.0008534 L4.522,21.0008534 C3.735,21.0008534 2.978,20.6178534 2.496,19.9758534 C0.864,17.7988534 0,15.2138534 0,12.5008534 C0,9.07685339 1.359,5.87985339 3.825,3.50185339 C6.288,1.12485339 9.522,-0.118146613 12.966,0.00885338658 Z M20.906,9.24485339 C20.643,9.32985339 20.499,9.61185339 20.584,9.87385339 C20.669,10.1368534 20.951,10.2808534 21.214,10.1958534 C21.477,10.1108534 21.62,9.82885339 21.535,9.56585339 C21.45,9.30285339 21.168,9.15985339 20.906,9.24485339 Z M17.903,5.28585339 C17.725,5.49785339 17.752,5.81285339 17.964,5.98985339 C18.176,6.16685339 18.491,6.13985339 18.668,5.92785339 C18.846,5.71685339 18.819,5.40185339 18.607,5.22385339 C18.395,5.04585339 18.08,5.07385339 17.903,5.28585339 Z M15.704,4.07585339 C15.592,4.32885339 15.705,4.62385339 15.957,4.73585339 C16.209,4.84885339 16.505,4.73485339 16.617,4.48285339 C16.73,4.23085339 16.616,3.93485339 16.365,3.82285339 C16.112,3.70985339 15.817,3.82385339 15.704,4.07585339 Z M13.823,3.09385339 C13.549,3.05485339 13.296,3.24585339 13.258,3.51885339 C13.219,3.79185339 13.409,4.04485339 13.683,4.08385339 C13.956,4.12285339 14.209,3.93185339 14.248,3.65885339 C14.286,3.38485339 14.096,3.13185339 13.823,3.09385339 Z M11.178,3.09385339 C10.905,3.13185339 10.714,3.38485339 10.752,3.65885339 C10.791,3.93185339 11.044,4.12285339 11.318,4.08385339 C11.591,4.04485339 11.782,3.79185339 11.742,3.51885339 C11.704,3.24585339 11.451,3.05485339 11.178,3.09385339 Z M3.465,9.56585339 C3.38,9.82885339 3.524,10.1108534 3.786,10.1958534 C4.049,10.2808534 4.331,10.1368534 4.416,9.87385339 C4.501,9.61185339 4.358,9.32985339 4.095,9.24485339 C3.832,9.15985339 3.551,9.30285339 3.465,9.56585339 Z M3.006,12.1688534 C2.996,12.4458534 3.212,12.6768534 3.489,12.6868534 C3.764,12.6968534 3.996,12.4808534 4.005,12.2048534 C4.015,11.9288534 3.799,11.6968534 3.524,11.6878534 C3.247,11.6778534 3.016,11.8938534 3.006,12.1688534 Z M3.889,15.1638534 C4.157,15.0968534 4.32,14.8258534 4.252,14.5578534 C4.186,14.2898534 3.914,14.1258534 3.647,14.1938534 C3.379,14.2598534 3.215,14.5318534 3.283,14.7988534 C3.349,15.0678534 3.62,15.2308534 3.889,15.1638534 Z M4.956,17.4338534 C5.196,17.2958534 5.278,16.9908534 5.139,16.7508534 C5.001,16.5118534 4.696,16.4298534 4.456,16.5688534 C4.217,16.7068534 4.135,17.0118534 4.273,17.2508534 C4.411,17.4908534 4.717,17.5728534 4.956,17.4338534 Z M5.453,7.74885339 C5.608,7.51885339 5.547,7.20785339 5.319,7.05385339 C5.09,6.89985339 4.779,6.95985339 4.624,7.18885339 C4.47,7.41785339 4.531,7.72885339 4.759,7.88285339 C4.989,8.03785339 5.299,7.97685339 5.453,7.74885339 Z M7.036,5.98985339 C7.248,5.81285339 7.276,5.49785339 7.098,5.28585339 C6.92,5.07385339 6.606,5.04585339 6.394,5.22385339 C6.182,5.40185339 6.155,5.71685339 6.332,5.92785339 C6.51,6.13985339 6.824,6.16685339 7.036,5.98985339 Z M9.043,4.73585339 C9.295,4.62385339 9.408,4.32885339 9.296,4.07585339 C9.184,3.82385339 8.889,3.70985339 8.636,3.82285339 C8.384,3.93485339 8.271,4.23085339 8.383,4.48285339 C8.495,4.73485339 8.791,4.84885339 9.043,4.73585339 Z M12.5,18.0008534 C13.879,18.0008534 15,16.8798534 15,15.5008534 C15,14.9848534 14.843,14.5048534 14.574,14.1058534 L20.33,7.80485339 C20.517,7.60185339 20.502,7.28585339 20.298,7.09885339 C20.094,6.91285339 19.779,6.92685339 19.592,7.13085339 L13.858,13.4078534 C13.467,13.1528534 13.001,13.0008534 12.5,13.0008534 C11.121,13.0008534 10,14.1228534 10,15.5008534 C10,16.8798534 11.121,18.0008534 12.5,18.0008534 Z M20.728,17.2508534 C20.866,17.0118534 20.783,16.7068534 20.544,16.5688534 C20.305,16.4298534 19.999,16.5118534 19.862,16.7508534 C19.723,16.9908534 19.805,17.2958534 20.044,17.4338534 C20.283,17.5728534 20.589,17.4908534 20.728,17.2508534 Z M21.718,14.7988534 C21.785,14.5318534 21.621,14.2598534 21.354,14.1938534 C21.086,14.1258534 20.815,14.2898534 20.748,14.5578534 C20.681,14.8258534 20.844,15.0968534 21.112,15.1638534 C21.38,15.2308534 21.652,15.0678534 21.718,14.7988534 Z M21.512,12.6868534 C21.788,12.6768534 22.004,12.4458534 21.994,12.1688534 C21.985,11.8938534 21.753,11.6778534 21.477,11.6878534 C21.201,11.6968534 20.986,11.9288534 20.995,12.2048534 C21.004,12.4808534 21.237,12.6968534 21.512,12.6868534 Z M13.573,14.459 C13.575,14.461 13.577,14.461 13.579,14.463 C13.838,14.732 14,15.097 14,15.5 C14,16.327 13.327,17 12.5,17 C11.673,17 11,16.327 11,15.5 C11,14.673 11.673,14 12.5,14 C12.912,14 13.286,14.168 13.557,14.438 C13.564,14.444 13.566,14.453 13.573,14.459 Z" id="Combined-Shape"></path>
            </g>
        </g>
    </g>
</svg>