<?xml version="1.0" encoding="UTF-8"?>
<svg width="25px" height="25px" viewBox="0 0 25 25" version="1.1" xmlns="http://www.w3.org/2000/svg" xmlns:xlink="http://www.w3.org/1999/xlink">
    <!-- Generator: Sketch 42 (36781) - http://www.bohemiancoding.com/sketch -->
    <title>help</title>
    <desc>Created with Sketch.</desc>
    <defs></defs>
    <g id="Page-1" stroke="none" stroke-width="1" fill="none" fill-rule="evenodd">
        <g id="Subtle-Color" transform="translate(-50.000000, -250.000000)">
            <g id="help" transform="translate(50.000000, 250.000000)">
                <path d="M24.5,12.5 C24.5,19.127 19.127,24.5 12.5,24.5 C5.873,24.5 0.5,19.127 0.5,12.5 C0.5,5.873 5.873,0.5 12.5,0.5 C19.127,0.5 24.5,5.873 24.5,12.5" id="Fill-196" fill="#45C7D8" opacity="0.119999997"></path>
                <path d="M13,18 C13,18.276 12.776,18.5 12.5,18.5 C12.224,18.5 12,18.276 12,18 C12,17.724 12.224,17.5 12.5,17.5 C12.776,17.5 13,17.724 13,18" id="Fill-197" fill="#45C7D8"></path>
                <path d="M13,18 C13,18.276 12.776,18.5 12.5,18.5 C12.224,18.5 12,18.276 12,18 C12,17.724 12.224,17.5 12.5,17.5 C12.776,17.5 13,17.724 13,18 Z" id="Stroke-198" stroke="#45C7D8" stroke-linecap="round" stroke-linejoin="round"></path>
                <path d="M24.5,12.5 C24.5,19.127 19.127,24.5 12.5,24.5 C5.873,24.5 0.5,19.127 0.5,12.5 C0.5,5.873 5.873,0.5 12.5,0.5 C19.127,0.5 24.5,5.873 24.5,12.5 Z" id="Stroke-199" stroke="#45C7D8" stroke-linecap="round" stroke-linejoin="round"></path>
                <path d="M9.5,9.5 C9.5,7.665 11.147,6.215 13.044,6.548 C14.25,6.76 15.24,7.75 15.452,8.956 C15.69,10.311 15.018,11.539 13.946,12.129 C13.09,12.601 12.5,13.437 12.5,14.413 L12.5,14.5 L12.5,15.5" id="Stroke-200" stroke="#45C7D8" stroke-linecap="round" stroke-linejoin="round"></path>
            </g>
        </g>
    </g>
</svg>