<svg xmlns="http://www.w3.org/2000/svg" width="25" height="25" viewBox="0 0 25 25">
  <g fill="#3FB550" fill-rule="evenodd">
    <path d="M23.4875,7.6856 L24.4105,7.2816 C24.1005,6.5816 23.7305,5.9206 23.3205,5.2906 L22.4855,5.8476 C20.3335,2.6246 16.6655,0.5006 12.5005,0.5006 C5.8725,0.5006 0.5005,5.8736 0.5005,12.5006 C0.5005,19.1276 5.8725,24.5006 12.5005,24.5006 C19.1275,24.5006 24.5005,19.1276 24.5005,12.5006 C24.5005,10.7876 24.1345,9.1616 23.4875,7.6856" opacity=".12"/>
    <path d="M17.5153,9.7617 L23.1703,5.9917 C23.3813,6.3407 23.5713,6.6847 23.7403,7.0297 L17.5153,9.7617 Z M12.5003,14.0007 C11.6733,14.0007 11.0003,13.3277 11.0003,12.5007 C11.0003,11.6737 11.6733,11.0007 12.5003,11.0007 C13.3273,11.0007 14.0003,11.6737 14.0003,12.5007 C14.0003,13.3277 13.3273,14.0007 12.5003,14.0007 L12.5003,14.0007 Z M24.8673,7.0787 C24.5623,6.3897 24.1933,5.7157 23.7393,5.0187 C23.6663,4.9067 23.5513,4.8277 23.4203,4.8007 C23.2903,4.7747 23.1543,4.8017 23.0423,4.8747 L22.6033,5.1677 C20.2443,1.9327 16.5133,0.0007 12.5003,0.0007 C5.6073,0.0007 0.0003,5.6087 0.0003,12.5007 C0.0003,19.3937 5.6073,25.0007 12.5003,25.0007 C18.4403,25.0007 23.5973,20.7787 24.7603,14.9587 C24.8143,14.6887 24.6393,14.4247 24.3683,14.3707 C24.0983,14.3137 23.8333,14.4917 23.7803,14.7637 C22.7093,20.1157 17.9653,24.0007 12.5003,24.0007 C6.1593,24.0007 1.0003,18.8417 1.0003,12.5007 C1.0003,6.1597 6.1593,1.0007 12.5003,1.0007 C16.1783,1.0007 19.5983,2.7657 21.7723,5.7217 L20.1033,6.8337 C18.3163,4.4327 15.5183,3.0007 12.5003,3.0007 C7.2623,3.0007 3.0003,7.2627 3.0003,12.5007 C3.0003,17.7397 7.2623,22.0007 12.5003,22.0007 C17.0103,22.0007 20.9293,18.7907 21.8203,14.3687 C21.8753,14.0987 21.7003,13.8347 21.4293,13.7807 C21.1593,13.7217 20.8943,13.9017 20.8403,14.1717 C20.0423,18.1287 16.5353,21.0007 12.5003,21.0007 C7.8133,21.0007 4.0003,17.1877 4.0003,12.5007 C4.0003,7.8147 7.8133,4.0007 12.5003,4.0007 C15.1833,4.0007 17.6713,5.2657 19.2713,7.3887 L17.6063,8.4987 C16.3833,6.9317 14.5143,6.0007 12.5003,6.0007 C8.9163,6.0007 6.0003,8.9167 6.0003,12.5007 C6.0003,16.0847 8.9163,19.0007 12.5003,19.0007 C15.5973,19.0007 18.2763,16.8037 18.8703,13.7777 C18.9243,13.5057 18.7473,13.2427 18.4763,13.1907 C18.2053,13.1317 17.9423,13.3137 17.8893,13.5837 C17.3873,16.1437 15.1203,18.0007 12.5003,18.0007 C9.4673,18.0007 7.0003,15.5327 7.0003,12.5007 C7.0003,9.4687 9.4673,7.0007 12.5003,7.0007 C14.1793,7.0007 15.7393,7.7637 16.7753,9.0537 L14.2613,10.7297 C13.8083,10.2797 13.1863,10.0007 12.5003,10.0007 C11.1213,10.0007 10.0003,11.1217 10.0003,12.5007 C10.0003,13.8797 11.1213,15.0007 12.5003,15.0007 C13.8783,15.0007 15.0003,13.8797 15.0003,12.5007 C15.0003,12.3237 14.9803,12.1497 14.9443,11.9827 L24.6113,7.7397 C24.7333,7.6857 24.8283,7.5857 24.8763,7.4617 C24.9243,7.3377 24.9213,7.1997 24.8673,7.0787 L24.8673,7.0787 Z"/>
  </g>
</svg>
