<svg id="icons" xmlns="http://www.w3.org/2000/svg" xmlns:xlink="http://www.w3.org/1999/xlink" viewBox="0 0 48 48"><defs><linearGradient id="New_Gradient_Swatch_5" x1="24" y1="47" x2="24" y2="1" gradientUnits="userSpaceOnUse"><stop offset="0" stop-color="#fd7d47"/><stop offset="1" stop-color="#ff5099"/></linearGradient></defs><title>user-member-people-arrows</title><g id="user-member-people-arrows"><rect x="16" y="36" width="16" height="9" fill="#ffc0a6"/><path d="M24,31a6,6,0,1,0-6-6A6,6,0,0,0,24,31Zm0-8a2,2,0,1,1-2,2A2,2,0,0,1,24,23ZM14,27H6v4L0,25l6-6v4h8ZM9.59,13.41,7,16V8h8l-2.59,2.59,5,5-2.82,2.82ZM22,7H18l6-6,6,6H26v8H22Zm8.59,8.59,5-5L33,8h8v8l-2.59-2.59-5,5ZM28,33H20a6,6,0,0,0-6,6v8H34V39A6,6,0,0,0,28,33Zm2,10H18V39a2,2,0,0,1,2-2h8a2,2,0,0,1,2,2ZM42,31V27H34V23h8V19l6,6Z" fill="url(#New_Gradient_Swatch_5)"/></g></svg>