<?xml version="1.0" encoding="UTF-8"?>
<svg width="21px" height="26px" viewBox="0 0 21 26" version="1.1" xmlns="http://www.w3.org/2000/svg" xmlns:xlink="http://www.w3.org/1999/xlink">
    <!-- Generator: Sketch 42 (36781) - http://www.bohemiancoding.com/sketch -->
    <title>globe-with-stand</title>
    <desc>Created with Sketch.</desc>
    <defs>
        <linearGradient x1="50%" y1="2.89580676%" x2="50%" y2="100%" id="linearGradient-1">
            <stop stop-color="#FF5D3B" offset="0%"></stop>
            <stop stop-color="#FF2D67" offset="100%"></stop>
        </linearGradient>
    </defs>
    <g id="Page-1" stroke="none" stroke-width="1" fill="none" fill-rule="evenodd">
        <g id="Gradient---Filled" transform="translate(-52.000000, -450.000000)" fill="url(#linearGradient-1)">
            <g id="globe-with-stand" transform="translate(52.000000, 449.500000)">
                <path d="M12.5,17.5048 C17.187,17.5048 21,13.6918 21,9.0048 C21,4.3178 17.187,0.5048 12.5,0.5048 C7.813,0.5048 4,4.3178 4,9.0048 C4,13.6918 7.813,17.5048 12.5,17.5048 L12.5,17.5048 Z M20.823,17.6208 C20.92,17.7178 20.974,17.8508 20.97,17.9878 C20.966,18.1258 20.905,18.2548 20.804,18.3468 C18.655,20.2728 15.899,21.3668 13,21.4828 L13,24.5048 L15.5,24.5048 C15.776,24.5048 16,24.7288 16,25.0048 C16,25.2808 15.776,25.5048 15.5,25.5048 L9.5,25.5048 C9.224,25.5048 9,25.2808 9,25.0048 C9,24.7288 9.224,24.5048 9.5,24.5048 L12,24.5048 L12,21.4798 C5.34,21.2138 0,15.7288 0,9.0048 C0,5.9228 1.121,2.9738 3.158,0.7008 C3.25,0.5998 3.379,0.5388 3.517,0.5348 C3.664,0.5338 3.787,0.5838 3.884,0.6818 L5.304,2.1018 C5.499,2.2968 5.499,2.6128 5.304,2.8088 C5.108,3.0038 4.792,3.0038 4.597,2.8088 L3.559,1.7708 C1.905,3.7998 1,6.3478 1,9.0048 C1,15.3458 6.159,20.5048 12.5,20.5048 C15.157,20.5048 17.705,19.5998 19.734,17.9458 L18.696,16.9078 C18.501,16.7128 18.501,16.3968 18.696,16.2008 C18.892,16.0058 19.208,16.0058 19.403,16.2008 L20.823,17.6208 Z" id="Fill-144"></path>
            </g>
        </g>
    </g>
</svg>